<?xml version="1.0" encoding="UTF-8" standalone="no"?>
<!-- License Agreement at http://iconmonstr.com/license/ -->

<svg
   xmlns:dc="http://purl.org/dc/elements/1.1/"
   xmlns:cc="http://creativecommons.org/ns#"
   xmlns:rdf="http://www.w3.org/1999/02/22-rdf-syntax-ns#"
   xmlns:svg="http://www.w3.org/2000/svg"
   xmlns="http://www.w3.org/2000/svg"
   xmlns:sodipodi="http://sodipodi.sourceforge.net/DTD/sodipodi-0.dtd"
   xmlns:inkscape="http://www.inkscape.org/namespaces/inkscape"
   version="1.1"
   x="0px"
   y="0px"
   width="512px"
   height="512px"
   viewBox="0 0 512 512"
   enable-background="new 0 0 512 512"
   xml:space="preserve"
   id="svg2"
   inkscape:version="0.48.4 r9939"
   sodipodi:docname="icon-black.svg"><metadata
     id="metadata9"><rdf:RDF><cc:Work
         rdf:about=""><dc:format>image/svg+xml</dc:format><dc:type
           rdf:resource="http://purl.org/dc/dcmitype/StillImage" /></cc:Work></rdf:RDF></metadata><defs
     id="defs7" /><sodipodi:namedview
     pagecolor="#ffffff"
     bordercolor="#666666"
     borderopacity="1"
     objecttolerance="10"
     gridtolerance="10"
     guidetolerance="10"
     inkscape:pageopacity="0"
     inkscape:pageshadow="2"
     inkscape:window-width="640"
     inkscape:window-height="480"
     id="namedview5"
     showgrid="false"
     inkscape:zoom="0.4609375"
     inkscape:cx="256"
     inkscape:cy="256"
     inkscape:window-x="0"
     inkscape:window-y="24"
     inkscape:window-maximized="0"
     inkscape:current-layer="svg2" /><path
     id="tools-5-icon"
     d="M425.908,380.059L236.054,190.203c-9.129-9.127-13.83-21.822-12.834-34.693  c1.885-24.382-6.492-49.408-25.142-68.056c-24.156-24.156-59.197-31.203-89.753-20.636l55.194,55.194  c1.265,21.521-32.008,54.817-53.56,53.559l-55.192-55.194c-10.514,30.4-3.639,65.48,20.635,89.754  c16.935,16.936,39.13,25.399,61.326,25.399c6.129,0,25.101-3.749,41.424,12.574l189.856,189.855  c15.985,15.987,41.908,15.99,57.899,0C441.896,421.971,441.896,396.047,425.908,380.059z M394.962,423.385  c-9.318,0-16.875-7.555-16.875-16.874c0-9.318,7.557-16.873,16.875-16.873c9.317,0,16.874,7.555,16.874,16.873  C411.836,415.83,404.279,423.385,394.962,423.385z M273.336,187.93L390.714,70.551L462,141.838L344.622,259.216l-17.326-17.325  l96.157-96.157c2.852-2.851,2.852-7.473,0-10.324c-2.852-2.852-7.474-2.852-10.324-0.001l-96.158,96.157l-16.069-16.07  l96.281-96.279c2.851-2.851,2.851-7.473-0.002-10.325c-2.852-2.851-7.474-2.851-10.323,0l-96.28,96.28L273.336,187.93z   M247.166,356.671l-75.9,75.9l-89.301,16.481l18.016-87.768l75.899-75.9l17.241,17.241l-68.284,68.284  c-2.85,2.85-2.851,7.473,0,10.325c2.852,2.851,7.473,2.851,10.324-0.001l68.284-68.283l16.071,16.07l-68.406,68.405  c-2.852,2.852-2.852,7.474,0,10.324c2.851,2.852,7.473,2.852,10.324,0l68.406-68.405L247.166,356.671z"
     style="fill:#ffffff" /></svg>