<?xml version="1.0" encoding="UTF-8" standalone="no"?>
<!-- The icon can be used freely in both personal and commercial projects with no attribution required, but always appreciated. 
You may NOT sub-license, resell, rent, redistribute or otherwise transfer the icon without express written permission from iconmonstr.com -->

<svg
   xmlns:dc="http://purl.org/dc/elements/1.1/"
   xmlns:cc="http://creativecommons.org/ns#"
   xmlns:rdf="http://www.w3.org/1999/02/22-rdf-syntax-ns#"
   xmlns:svg="http://www.w3.org/2000/svg"
   xmlns="http://www.w3.org/2000/svg"
   xmlns:sodipodi="http://sodipodi.sourceforge.net/DTD/sodipodi-0.dtd"
   xmlns:inkscape="http://www.inkscape.org/namespaces/inkscape"
   version="1.1"
   x="0px"
   y="0px"
   width="512px"
   height="512px"
   viewBox="0 0 512 512"
   enable-background="new 0 0 512 512"
   xml:space="preserve"
   id="svg3004"
   inkscape:version="0.48.4 r9939"
   sodipodi:docname="iconmonstr-stream-4-icon.svg"><metadata
     id="metadata3011"><rdf:RDF><cc:Work
         rdf:about=""><dc:format>image/svg+xml</dc:format><dc:type
           rdf:resource="http://purl.org/dc/dcmitype/StillImage" /><dc:title></dc:title></cc:Work></rdf:RDF></metadata><defs
     id="defs3009" /><sodipodi:namedview
     pagecolor="#ffffff"
     bordercolor="#666666"
     borderopacity="1"
     objecttolerance="10"
     gridtolerance="10"
     guidetolerance="10"
     inkscape:pageopacity="0"
     inkscape:pageshadow="2"
     inkscape:window-width="901"
     inkscape:window-height="648"
     id="namedview3007"
     showgrid="false"
     inkscape:zoom="0.4609375"
     inkscape:cx="256"
     inkscape:cy="256"
     inkscape:window-x="0"
     inkscape:window-y="24"
     inkscape:window-maximized="0"
     inkscape:current-layer="svg3004" /><path
     id="stream-4-icon"
     d="M377.204,257.555c-30.523,0-59.227-11.826-80.887-33.306v46.026H159.575V154.528h103.344  c-1.182-11.578-0.665-23.543,1.817-35.481H50v335.086h352.805V254.706C394.5,256.587,385.927,257.555,377.204,257.555z   M124.851,419.203H86.27v-33.18h38.581V419.203z M124.851,361.328H86.27v-33.182h38.581V361.328z M124.851,303.18H86.27V270h38.581  V303.18z M124.851,245.584H86.27v-33.183h38.581V245.584z M124.851,187.708H86.27v-33.18h38.581V187.708z M296.317,419.203H159.575  V303.455h136.742V419.203z M369.624,419.203h-38.58v-33.18h38.58V419.203z M369.624,361.328h-38.58v-33.182h38.58V361.328z   M369.624,303.18h-38.58V270h38.58V303.18z M295.826,118.781c10.312-35.202,42.838-60.914,81.374-60.914  c51.678,0,91.458,45.881,83.869,97.271h-6.901c-8.767,0-9.879-1.028-14.581-14.071c-3.733-10.353-8.735-23.108-20.287-23.108  s-16.294,12.859-20.286,23.108c-3.312,8.501-4.841,13.564-7.717,13.564c-2.789,0-4.317-4.939-7.718-13.564  c-4.031-10.229-8.734-23.108-20.286-23.108c-11.554,0-16.45,12.789-20.288,23.108c-3.437,9.244-4.739,13.564-7.719,13.564  c-2.854,0-3.986-4.444-7.717-13.564c-4.159-10.171-8.883-22.285-21.522-22.285H295.826z M447.304,168.996  c-11.553,0-16.211-12.075-20.286-22.287c-4.184-10.477-5.033-13.935-7.718-13.935c-2.696,0-3.791,4.281-7.718,13.935  c-4.138,10.181-8.733,23.11-20.285,23.11s-16.326-12.846-20.286-23.108c-3.687-9.552-4.764-13.566-7.718-13.566  c-2.823,0-3.844,3.829-7.719,13.566c-4.065,10.214-8.734,23.108-20.288,23.108c-11.552,0-16.616-12.731-20.287-23.108  c-4.613-13.045-6.003-14.142-14.628-14.142h-7.358c-6.022,50.804,33.657,94.87,84.188,94.87c37.63,0,69.528-24.515,80.608-58.443  H447.304z"
     style="fill:#ffffff" /></svg>